<svg version="1.1" id="Layer_1" xmlns="http://www.w3.org/2000/svg" xmlns:xlink="http://www.w3.org/1999/xlink" x="0px" y="0px"
	 width="100%" viewBox="0 0 500 131" enable-background="new 0 0 500 131" xml:space="preserve">

<path fill="#37BBDC" opacity="1.000000" stroke="none" 
	d="
M402.002563,19.816681 
	C419.657837,19.816669 436.814331,19.736906 453.968872,19.884048 
	C457.409088,19.913557 462.100677,18.112541 463.839569,22.418674 
	C465.718414,27.071325 465.653778,32.276047 462.538361,36.745071 
	C456.731750,45.074554 450.801880,53.318127 444.924011,61.597919 
	C438.204742,71.062935 431.486145,80.528419 424.281586,90.677933 
	C426.450317,90.864746 427.830261,91.082314 429.210907,91.086670 
	C438.871368,91.117188 448.532227,91.146393 458.192383,91.083504 
	C462.157043,91.057693 464.014252,92.815186 463.923340,96.823982 
	C463.821381,101.318832 463.880066,105.817856 463.903595,110.314873 
	C463.923889,114.190231 462.127228,116.186783 458.156158,116.183990 
	C433.505127,116.166649 408.854095,116.154434 384.203125,116.193565 
	C380.413940,116.199577 378.953644,114.457283 378.754944,110.726707 
	C378.452362,105.046501 379.557098,100.172379 383.050446,95.355904 
	C394.863678,79.068451 406.232880,62.458954 418.436829,45.022419 
	C411.087555,45.022419 404.562592,45.018539 398.037598,45.023178 
	C380.933075,45.035336 382.908752,46.294804 382.817963,29.672472 
	C382.810699,28.340036 382.855591,27.006413 382.814636,25.675236 
	C382.693726,21.743755 384.545319,19.797682 388.511627,19.826788 
	C392.841858,19.858568 397.172577,19.822989 402.002563,19.816681 
M387.180359,28.692711 
	C387.180359,32.314102 387.180359,35.935493 387.180359,40.105591 
	C397.840912,40.105591 407.955353,40.016102 418.065582,40.181957 
	C420.059906,40.214676 422.038116,41.231052 424.023743,41.793785 
	C423.394958,43.886456 423.233185,46.296799 422.061096,48.019840 
	C414.853210,58.615437 407.404816,69.047180 400.061157,79.550735 
	C394.911011,86.916885 389.519073,94.138657 384.838165,101.793671 
	C383.380432,104.177589 383.642242,107.779175 383.786377,110.791290 
	C383.807220,111.226723 387.595703,111.769150 389.642365,111.776047 
	C410.963715,111.847908 432.285431,111.820328 453.607025,111.820328 
	C455.346008,111.820328 457.084961,111.820328 458.733398,111.820328 
	C458.733398,106.054939 458.733398,101.146751 458.733398,95.898331 
	C446.898376,95.898331 435.426239,95.999718 423.959412,95.797997 
	C422.059692,95.764580 419.539001,94.876366 418.529358,93.491020 
	C417.888153,92.611206 419.131042,89.816734 420.173523,88.334023 
	C432.332275,71.040253 444.557404,53.792168 456.908234,36.635143 
	C459.495544,33.041077 460.874268,29.476259 459.371582,24.707676 
	C436.242706,24.707676 413.124390,24.671667 390.007446,24.836226 
	C389.059692,24.842974 388.125366,26.734686 387.180359,28.692711 
z"/>
<path fill="#36D460" opacity="1.000000" stroke="none" 
	d="
M88.910446,114.284637 
	C86.899940,107.728600 85.028503,101.560677 82.710022,93.919380 
	C80.559944,101.046059 78.569740,106.694206 77.210541,112.490311 
	C76.342201,116.193245 74.015877,116.254173 71.259895,115.987892 
	C68.412109,115.712746 65.029678,117.387695 63.721455,112.589394 
	C60.620865,101.217079 57.072319,89.964005 53.544971,78.712860 
	C52.599258,75.696327 53.142178,74.463875 56.471134,74.255669 
	C65.246277,73.706825 65.236465,73.608978 67.675262,82.133881 
	C68.862297,86.283226 70.057541,90.430305 71.284866,94.567787 
	C71.349915,94.787071 71.749153,94.907219 72.529160,95.439568 
	C74.184570,89.614922 76.049576,84.031448 77.302620,78.313866 
	C78.198753,74.224823 80.793457,74.249405 83.957230,74.245491 
	C87.135330,74.241562 89.662437,74.262856 90.578049,78.350075 
	C91.899155,84.247452 93.901863,89.992126 96.612679,95.750084 
	C97.995171,90.737137 99.397499,85.729561 100.755394,80.709976 
	C102.685226,73.576202 104.074722,72.863838 112.222885,75.369324 
	C111.634872,77.679863 111.117065,80.049614 110.426796,82.368019 
	C107.678040,91.600273 104.861237,100.812248 102.097839,110.040169 
	C100.169579,116.479279 95.615311,118.110741 88.910446,114.284637 
z"/>
<path fill="#FFFFFF" opacity="1.000000" stroke="none" 
	d="
M83.783279,27.112698 
	C84.693420,30.190474 85.490128,32.886936 86.536644,36.428867 
	C90.612122,31.423124 94.947166,27.201975 97.938042,22.180250 
	C103.118958,13.481389 110.693863,14.126655 118.889511,15.278621 
	C112.465286,26.375763 109.891121,38.319122 107.929611,51.348045 
	C102.921951,51.348045 96.842056,51.348045 91.333046,51.348045 
	C93.608757,45.274384 95.842339,39.313148 98.075928,33.351913 
	C97.616737,33.102238 97.157539,32.852566 96.698349,32.602894 
	C92.567505,37.686184 88.565269,42.882874 84.236755,47.791874 
	C82.700951,49.533630 80.371162,50.575279 78.403839,51.936539 
	C77.127411,49.976402 75.468536,48.161903 74.655006,46.025501 
	C73.014610,41.717758 71.834015,37.234921 70.463753,32.824306 
	C69.942093,32.759247 69.420433,32.694183 68.898773,32.629120 
	C68.040459,38.059383 67.226952,43.497440 66.284523,48.913067 
	C66.104568,49.947182 65.497452,51.689186 64.948250,51.745415 
	C62.127140,52.034256 59.260593,51.879208 56.475723,51.879208 
	C62.659039,39.916584 66.091782,28.328651 66.642754,14.921109 
	C70.176010,14.921109 74.253136,14.712571 78.280235,15.069052 
	C79.275871,15.157187 80.450066,16.943884 80.947441,18.187614 
	C82.054451,20.955740 82.785545,23.874197 83.783279,27.112698 
z"/>
<path fill="#36D460" opacity="1.000000" stroke="none" 
	d="
M275.740173,116.006035 
	C266.007660,116.011475 266.007599,116.011475 266.006836,106.911942 
	C266.006653,104.629059 266.006836,102.346169 266.006836,99.764870 
	C262.196136,99.764870 258.934021,99.764870 254.773987,99.764870 
	C254.773987,103.660049 254.609406,107.567963 254.823593,111.455002 
	C255.010727,114.851303 253.921021,116.402344 250.319138,116.057625 
	C247.732285,115.810043 245.102646,116.009445 242.216919,116.009445 
	C242.216919,102.050026 242.216919,88.646461 242.216919,74.343857 
	C245.611191,74.343857 249.037537,74.090813 252.380203,74.507996 
	C253.305511,74.623482 254.563171,76.684517 254.663986,77.933945 
	C254.966507,81.683594 254.772888,85.473289 254.772888,89.440369 
	C258.770935,89.440369 262.151459,89.440369 266.007690,89.440369 
	C266.007690,85.473419 266.183258,81.841530 265.954712,78.235252 
	C265.755707,75.095688 267.053284,74.218338 270.001434,74.258324 
	C280.909332,74.406227 278.746735,73.587883 278.857849,82.876289 
	C278.973145,92.519157 278.991821,102.167068 278.763275,111.805908 
	C278.729614,113.224472 277.097076,114.605118 275.740173,116.006035 
z"/>
<path fill="#36D460" opacity="1.000000" stroke="none" 
	d="
M146.135529,83.796532 
	C149.881821,94.474068 153.514236,104.779144 157.465027,115.987503 
	C153.068985,115.987503 149.466919,116.201889 145.919998,115.854004 
	C144.885269,115.752525 143.355652,114.157288 143.171143,113.058899 
	C142.371506,108.298752 139.472122,107.420441 135.311127,107.936989 
	C133.187149,108.200668 131.003448,107.983192 128.974182,107.983192 
	C123.991165,116.890678 123.991165,116.890678 114.774879,115.436150 
	C115.284195,113.671745 115.689774,111.941147 116.279724,110.275879 
	C120.054985,99.619362 123.984818,89.015724 127.601013,78.305946 
	C128.634689,75.244591 130.157791,73.873863 133.357864,74.275436 
	C134.670120,74.440102 136.050751,74.484543 137.347733,74.268440 
	C141.703003,73.542747 143.860458,75.626297 144.748840,79.644684 
	C145.034149,80.935204 145.589737,82.165970 146.135529,83.796532 
M132.511017,93.133980 
	C132.020325,94.653656 131.529633,96.173325 130.953735,97.956863 
	C133.590286,97.956863 135.790314,97.956863 138.684952,97.956863 
	C137.356659,94.323654 136.221268,91.218018 134.743790,87.176743 
	C133.824738,89.658058 133.314514,91.035606 132.511017,93.133980 
z"/>
<path fill="#31B9DB" opacity="1.000000" stroke="none" 
	d="
M288.815002,102.808571 
	C293.088013,96.670029 297.154968,90.827484 301.936401,83.958466 
	C295.782196,83.958466 290.634216,83.958466 285.010406,83.958466 
	C285.010406,81.204132 284.724548,79.185661 285.118408,77.309906 
	C285.351868,76.198036 286.642303,74.467033 287.483887,74.451584 
	C298.105927,74.256546 308.732758,74.323441 320.769409,74.323441 
	C319.670593,77.536240 319.317932,80.138344 318.009674,82.104691 
	C313.678070,88.615273 308.992340,94.889854 304.465149,101.271072 
	C303.440521,102.715324 302.507477,104.224525 300.931122,106.615784 
	C307.655701,106.615784 313.366150,106.615784 319.451447,106.615784 
	C319.605011,108.660774 319.647003,110.107994 319.834167,111.536194 
	C320.287933,114.998619 318.911560,116.157318 315.371002,116.086166 
	C304.903717,115.875832 294.429504,116.010971 283.830475,116.010971 
	C281.424652,109.960838 286.573273,107.108948 288.815002,102.808571 
z"/>
<path fill="#36D460" opacity="1.000000" stroke="none" 
	d="
M216.584488,116.414612 
	C203.292892,113.748428 196.388092,101.140038 200.357437,87.435188 
	C203.507736,76.558250 215.148041,71.036263 226.464600,75.050346 
	C232.773010,77.287994 236.462021,81.998940 236.769012,88.780701 
	C233.859863,88.914444 230.903229,89.335587 228.018890,89.043266 
	C226.857300,88.925537 225.925003,87.147453 224.762222,86.297585 
	C223.030243,85.031708 221.146362,82.939468 219.401382,83.010963 
	C217.587326,83.085297 214.509476,85.156593 214.338242,86.628502 
	C213.698853,92.124115 213.236511,97.876320 214.221100,103.255257 
	C215.117813,108.154060 222.249374,108.658920 225.943649,104.563324 
	C230.212097,99.831169 231.186340,99.660545 237.250305,102.583069 
	C235.987183,111.625763 228.209595,116.964706 216.584488,116.414612 
z"/>
<path fill="#FFFFFF" opacity="1.000000" stroke="none" 
	d="
M138.707092,43.091370 
	C140.109711,42.933731 142.143051,42.663544 142.550415,41.703438 
	C143.266754,40.015213 143.203827,37.891098 143.079391,35.974705 
	C142.863678,32.653313 141.751846,29.260176 142.233612,26.081696 
	C142.453735,24.629335 145.674133,22.542377 147.343399,22.704426 
	C149.022949,22.867472 151.135834,25.213427 151.832413,27.064390 
	C152.592422,29.083967 152.406815,31.755404 151.832794,33.931496 
	C148.820541,45.350830 142.649597,54.684914 131.876343,59.973923 
	C128.242035,61.758141 123.609283,62.074944 119.456001,61.985672 
	C117.514488,61.943943 114.763336,59.700432 113.971336,57.793549 
	C113.247902,56.051762 114.043938,52.088783 115.300568,51.494469 
	C117.099869,50.643490 120.116119,51.552971 122.241188,52.523945 
	C123.418686,53.061951 123.840019,55.254875 124.777931,57.035488 
	C126.470551,56.263573 128.182892,55.482670 130.457520,54.445335 
	C122.544174,50.300674 124.860153,42.674320 122.919693,36.670265 
	C122.297081,34.743824 121.298790,32.938801 120.472374,31.078228 
	C119.793625,31.090012 119.114883,31.101793 118.436142,31.113575 
	C120.013237,28.900501 121.223961,26.251835 123.237785,24.557987 
	C128.750305,19.921335 135.341476,22.323271 136.708191,29.342949 
	C137.564499,33.741096 137.987946,38.223522 138.707092,43.091370 
z"/>
<path fill="#4AD870" opacity="1.000000" stroke="none" 
	d="
M364.838165,117.729485 
	C353.042816,117.729446 341.721649,117.856644 330.407715,117.627403 
	C328.011658,117.578857 323.950104,116.672798 323.611298,115.384583 
	C322.899780,112.679123 323.260590,108.890755 324.752686,106.547737 
	C330.643951,97.296860 337.149170,88.437355 343.409515,79.420738 
	C344.324829,78.102402 345.146973,76.719376 346.645721,74.375656 
	C340.634796,74.375656 335.575745,74.231895 330.529358,74.422310 
	C326.669952,74.567924 325.242249,73.049652 325.202209,69.166054 
	C325.098175,59.064877 324.963104,59.066257 335.211914,59.066250 
	C346.197601,59.066242 357.183289,59.061394 368.168976,59.067989 
	C375.282257,59.072262 377.564545,63.098045 373.645813,69.329613 
	C370.374298,74.532043 366.602020,79.419769 363.047577,84.444061 
	C359.114929,90.002914 355.177826,95.558617 350.569489,102.066360 
	C357.204865,102.066360 363.064240,102.279755 368.899506,101.996384 
	C373.279907,101.783653 375.114655,103.497765 374.731262,107.776726 
	C374.716461,107.941841 374.727600,108.109482 374.729858,108.275909 
	C374.853821,117.530022 374.662170,117.722511 364.838165,117.729485 
M360.449432,82.918205 
	C364.163116,76.102005 371.424866,71.154793 372.083771,62.443813 
	C357.092590,62.443813 342.887177,62.443813 328.661377,62.443813 
	C328.661377,65.441437 328.661377,68.039421 328.661377,71.281364 
	C334.541809,71.281364 340.158203,71.185524 345.767426,71.343857 
	C347.309540,71.387390 348.830200,72.190559 350.360718,72.645142 
	C349.839630,74.110062 349.603790,75.771233 348.752350,77.008873 
	C341.967041,86.871719 334.993835,96.605797 328.258362,106.501976 
	C326.897614,108.501259 326.301178,111.020760 325.147888,113.791763 
	C341.348541,113.791763 356.334259,113.791763 371.339111,113.791763 
	C371.339111,110.703964 371.339111,108.107674 371.339111,105.050285 
	C364.266754,105.050285 357.469482,105.131836 350.675385,105.019798 
	C346.576355,104.952202 345.856110,103.574211 348.186523,100.171585 
	C352.037933,94.548080 356.074890,89.051697 360.449432,82.918205 
z"/>
<path fill="#38D461" opacity="1.000000" stroke="none" 
	d="
M171.457306,108.817429 
	C171.457550,100.373306 171.457550,92.405685 171.457550,83.877625 
	C167.554718,83.705429 163.994354,83.548340 160.156891,83.379028 
	C160.156891,80.458199 160.156891,77.870026 160.156891,74.785713 
	C172.016434,74.785713 183.831757,74.785713 195.867630,74.785713 
	C195.867630,77.666809 195.867630,80.282494 195.867630,83.343018 
	C192.135712,83.515839 188.560165,83.681419 184.445282,83.871979 
	C184.445282,94.598671 184.445282,105.004219 184.445282,115.705948 
	C179.977936,115.705948 176.068802,115.705948 171.457062,115.705948 
	C171.457062,113.530693 171.457062,111.412315 171.457306,108.817429 
z"/>
<path fill="#2d314d" opacity="1.000000" stroke="none" 
	d="
M387.182556,28.220453 
	C388.125366,26.734686 389.059692,24.842974 390.007446,24.836226 
	C413.124390,24.671667 436.242706,24.707676 459.371582,24.707676 
	C460.874268,29.476259 459.495544,33.041077 456.908234,36.635143 
	C444.557404,53.792168 432.332275,71.040253 420.173523,88.334023 
	C419.131042,89.816734 417.888153,92.611206 418.529358,93.491020 
	C419.539001,94.876366 422.059692,95.764580 423.959412,95.797997 
	C435.426239,95.999718 446.898376,95.898331 458.733398,95.898331 
	C458.733398,101.146751 458.733398,106.054939 458.733398,111.820328 
	C457.084961,111.820328 455.346008,111.820328 453.607025,111.820328 
	C432.285431,111.820328 410.963715,111.847908 389.642365,111.776047 
	C387.595703,111.769150 383.807220,111.226723 383.786377,110.791290 
	C383.642242,107.779175 383.380432,104.177589 384.838165,101.793671 
	C389.519073,94.138657 394.911011,86.916885 400.061157,79.550735 
	C407.404816,69.047180 414.853210,58.615437 422.061096,48.019840 
	C423.233185,46.296799 423.394958,43.886456 424.023743,41.793785 
	C422.038116,41.231052 420.059906,40.214676 418.065582,40.181957 
	C407.955353,40.016102 397.840912,40.105591 387.180359,40.105591 
	C387.180359,35.935493 387.180359,32.314102 387.182556,28.220453 
z"/>
<path fill="#2d314d" opacity="1.000000" stroke="none" 
	d="
M132.657654,92.773575 
	C133.314514,91.035606 133.824738,89.658058 134.743790,87.176743 
	C136.221268,91.218018 137.356659,94.323654 138.684952,97.956863 
	C135.790314,97.956863 133.590286,97.956863 130.953735,97.956863 
	C131.529633,96.173325 132.020325,94.653656 132.657654,92.773575 
z"/>
<path fill="#2d314d" opacity="1.000000" stroke="none" 
	d="
M360.241547,83.209976 
	C356.074890,89.051697 352.037933,94.548080 348.186523,100.171585 
	C345.856110,103.574211 346.576355,104.952202 350.675385,105.019798 
	C357.469482,105.131836 364.266754,105.050285 371.339111,105.050285 
	C371.339111,108.107674 371.339111,110.703964 371.339111,113.791763 
	C356.334259,113.791763 341.348541,113.791763 325.147888,113.791763 
	C326.301178,111.020760 326.897614,108.501259 328.258362,106.501976 
	C334.993835,96.605797 341.967041,86.871719 348.752350,77.008873 
	C349.603790,75.771233 349.839630,74.110062 350.360718,72.645142 
	C348.830200,72.190559 347.309540,71.387390 345.767426,71.343857 
	C340.158203,71.185524 334.541809,71.281364 328.661377,71.281364 
	C328.661377,68.039421 328.661377,65.441437 328.661377,62.443813 
	C342.887177,62.443813 357.092590,62.443813 372.083771,62.443813 
	C371.424866,71.154793 364.163116,76.102005 360.241547,83.209976 
z"/>
</svg>